<svg version="1.1" width="5000" viewBox="-10 -10 2772 2772" height="5000" xmlns="http://www.w3.org/2000/svg" xmlns:xlink="http://www.w3.org/1999/xlink" style="cursor: default;">
  <path d="M 39.665 74.4155 C 68.787 74.4155 120.6961 137.4284 135.0891 156.6184 C 169.3791 202.3393 189.8201 253.1932 269.6042 226.1753 C 349.3892 199.1573 345.6042 127.2924 306.3942 65.2085 C 267.1852 3.1236 160.2761 29.5956 80.478 91.6555 C -28.664 176.5494 208.0951 230.8933 196.0231 301.4812 C 183.9511 372.0681 89.7961 360.2351 82.778 280.2112 C 75.76 200.1873 247.8801 156.6184 335.7122 156.6184 C 423.5452 156.6184 413.9342 229.2093 382.2742 296.8812 C 350.6152 364.5531 377.2212 217.0983 269.6042 250.8943 C 161.9871 284.6912 -30.922 330.3431 22.994 199.1573 C 76.91 67.9725 192.6331 119.4774 222.4661 107.1825 C 252.2991 94.8875 287.8302 24.4726 255.8081 3.1236 C 237.3521 -9.1794 139.2331 15.9026 174.7541 60.0455 C 210.2751 104.1895 268.5742 196.9783 184.5261 239.9723 C 100.4781 282.9662 0 133.0504 0 112.3554 C 0 91.6555 10.542 74.4155 39.665 74.4155 Z " stroke-opacity="1" stroke="#000000" stroke-width="1" stroke-linecap="square" stroke-linejoin="miter">
  </path>
</svg>
